Coordinates
version=1
nRows=14
nColumns=28
inDegrees=yes

Units are S.I. units (second, meters, Newtons, ...)
Angles are in degrees.

endheader
time	pelvis_tilt	pelvis_list	pelvis_rotation	pelvis_tx	pelvis_ty	pelvis_tz	hip_flexion_r	hip_adduction_r	hip_rotation_r	knee_angle_r	ankle_angle_r	subtalar_angle_r	mtp_angle_r	hip_flexion_l	hip_adduction_l	hip_rotation_l	knee_angle_l	socket_flexion	socket_adduction	socket_rotation	socket_tx	socket_ty	socket_tz	foot_flex	lumbar_extension	lumbar_bending	lumbar_rotation
      0.27083333	     -0.61464591	      4.02545154	      1.42189721	     -0.41554878	      0.98549799	      0.24275883	     15.37886509	     -6.25956685	      3.31853907	    -62.68249234	    -11.44546343	    -14.26257484	     11.02040347	      7.76499919	      7.43830326	      4.99596535	    -20.28934902	     -2.44354341	      0.00000000	      0.00000000	      0.00000000	     -0.00975689	      0.00000000	      4.22350671	     -8.09515786	     -7.08629572	     -4.87883495
      0.27500000	     -0.54514504	      3.87900091	      1.44109847	     -0.41005232	      0.98644948	      0.24209347	     16.05059326	     -6.15495170	      3.15913733	    -62.63737108	    -10.88472890	    -14.54939134	     10.99293511	      7.20967840	      7.30663479	      5.01671664	    -20.11859872	     -2.52621578	      0.00000000	      0.00000000	      0.00000000	     -0.00950913	      0.00000000	      4.29563323	     -8.15695897	     -6.85860237	     -4.96198049
      0.27916667	     -0.02595639	      3.61773910	      1.27497865	     -0.40374789	      0.98842240	      0.24201123	     16.00458177	     -5.70926929	      3.24585245	    -62.27017821	     -9.54904308	    -15.12942218	      9.11913301	      5.58031622	      6.94996454	      5.06501473	    -18.25540263	     -1.52283732	      0.00000000	      0.00000000	      0.00000000	     -0.00986421	      0.00000000	      4.38381080	     -8.65161974	     -6.53150861	     -5.13031777
      0.28333333	     -0.00296154	      3.44204040	      1.32923243	     -0.39828174	      0.98932260	      0.24135966	     16.66079481	     -5.53459401	      3.08425859	    -62.09675836	     -8.71097462	    -15.55998259	      9.10719998	      5.09144896	      6.78441407	      5.09483669	    -18.08938535	     -1.58250235	      0.00000000	      0.00000000	      0.00000000	     -0.00959324	      0.00000000	      4.43034916	     -8.67599756	     -6.28426493	     -5.25071578
      0.28750000	      0.01912615	      3.22838697	      1.38860592	     -0.39272937	      0.99027497	      0.24078588	     17.26008135	     -5.27405822	      2.96367843	    -61.82166574	     -7.81288765	    -16.05230437	      9.03724758	      4.55104325	      6.56723547	      5.18381944	    -17.79200088	     -1.56545616	      0.00000000	      0.00000000	      0.00000000	     -0.00935594	      0.00000000	      4.48249703	     -8.67774484	     -5.99269827	     -5.44083933
      0.29166667	      0.06336153	      2.99970129	      1.44169279	     -0.38714266	      0.99126226	      0.24023489	     17.79993013	     -4.98304899	      2.85354945	    -61.46571631	     -7.00388225	    -16.55664275	      8.84811113	      3.94127024	      6.32773443	      5.30034751	    -17.33908485	     -1.44146669	      0.00000000	      0.00000000	      0.00000000	     -0.00919148	      0.00000000	      4.53711604	     -8.70623215	     -5.67859239	     -5.68667458
      0.29583333	      0.65396401	      2.77397393	      1.32885540	     -0.38098152	      0.99325883	      0.23997988	     17.60331575	     -4.62052703	      2.85426457	    -60.86383339	     -6.31937905	    -17.18451708	      6.95829353	      2.27702661	      6.02364401	      5.37295332	    -15.56950430	     -0.51589266	      0.00000000	      0.00000000	      0.00000000	     -0.00920357	      0.00000000	      4.57746074	     -9.29022741	     -5.37074545	     -5.89025224
      0.30000000	      0.62668584	      2.57790556	      1.38159776	     -0.37552755	      0.99405544	      0.23939736	     18.22003040	     -4.38308125	      2.73131108	    -60.45104381	     -5.52660962	    -17.53526017	      6.89254045	      1.84198909	      5.82715331	      5.39779227	    -15.39698368	     -0.57834621	      0.00000000	      0.00000000	      0.00000000	     -0.00889266	      0.00000000	      4.61421161	     -9.26686336	     -5.10561342	     -5.98276651
      0.30416667	      0.62498981	      2.31714675	      1.44969150	     -0.37003252	      0.99488117	      0.23894902	     18.75915369	     -4.03635218	      2.59880381	    -59.94568938	     -4.77043492	    -17.96665430	      6.64420149	      1.31688286	      5.53828103	      5.51729608	    -15.01863888	     -0.49508553	      0.00000000	      0.00000000	      0.00000000	     -0.00875143	      0.00000000	      4.65636669	     -9.25117526	     -4.79991125	     -6.21203463
      0.30833333	      0.96282815	      2.10103231	      1.44326471	     -0.36415870	      0.99636380	      0.23842992	     18.81456876	     -3.73177363	      2.52576905	    -59.25136585	     -4.16506089	    -18.52474660	      4.98629949	      0.15974194	      5.28263766	      5.60125351	    -13.90258295	      0.02093236	      0.00000000	      0.00000000	      0.00000000	     -0.00847373	      0.00000000	      4.68485163	     -9.59407340	     -4.45541539	     -6.47376662
      0.31250000	      0.92989766	      2.00615189	      1.49071370	     -0.35864626	      0.99712353	      0.23785333	     19.35662755	     -3.61090410	      2.44014894	    -58.64209638	     -3.69187737	    -18.73297653	      4.95996196	     -0.25284861	      5.20003307	      5.58847135	    -13.81878286	     -0.13173339	      0.00000000	      0.00000000	      0.00000000	     -0.00791288	      0.00000000	      4.69105697	     -9.52645924	     -4.32072944	     -6.50688180
      0.31666667	      0.87403176	      1.79045720	      1.56303251	     -0.35321411	      0.99782394	      0.23735825	     19.88473427	     -3.31380591	      2.34034608	    -57.97082033	     -2.92031297	    -19.12160780	      4.89558363	     -0.65298233	      4.97190587	      5.65001514	    -13.62886325	     -0.18412328	      0.00000000	      0.00000000	      0.00000000	     -0.00756626	      0.00000000	      4.68922819	     -9.46206474	     -4.05179756	     -6.61779513
      0.32083333	      0.83167729	      1.56010330	      1.63555389	     -0.34786028	      0.99847415	      0.23685726	     20.38786309	     -3.00578334	      2.22604833	    -57.23950372	     -2.29790979	    -19.49283338	      4.75274638	     -1.07442405	      4.72472955	      5.73732015	    -13.38054142	     -0.16741407	      0.00000000	      0.00000000	      0.00000000	     -0.00735555	      0.00000000	      4.70198539	     -9.42878175	     -3.75237890	     -6.78723688
      0.32500000	      1.03423549	      1.16458900	      1.76952042	     -0.34220243	      0.99958678	      0.23625574	     20.48439753	     -2.50313700	      2.02798435	    -56.29177369	     -2.01322448	    -20.20317052	      3.42115844	     -2.02730429	      4.25957894	      5.98467891	    -12.30895814	      0.37550232	      0.00000000	      0.00000000	      0.00000000	     -0.00739196	      0.00000000	      4.73301592	     -9.64048036	     -3.18684405	     -7.38859482
